<svg width="1201" height="801" viewBox="0 0 1201 801" fill="none" xmlns="http://www.w3.org/2000/svg">
    <g clip-path="url(#clip0_5180_32616)">
        <path
            d="M50.5 0.5H0.5V50.5M50.5 0.5V50.5M50.5 0.5H100.5M50.5 50.5H0.5M50.5 50.5H100.5M50.5 50.5V100.5M0.5 50.5V100.5M100.5 0.5V50.5M100.5 0.5H150.5M100.5 50.5H150.5M100.5 50.5V100.5M150.5 0.5V50.5M150.5 0.5H200.5M150.5 50.5H200.5M150.5 50.5V100.5M200.5 0.5V50.5M200.5 0.5H250.5M200.5 50.5H250.5M200.5 50.5V100.5M250.5 0.5V50.5M250.5 0.5H300.5M250.5 50.5H300.5M250.5 50.5V100.5M300.5 0.5V50.5M300.5 0.5H350.5M300.5 50.5H350.5M300.5 50.5V100.5M350.5 0.5V50.5M350.5 0.5H400.5M350.5 50.5H400.5M350.5 50.5V100.5M400.5 0.5V50.5M400.5 0.5H450.5M400.5 50.5H450.5M400.5 50.5V100.5M450.5 0.5V50.5M450.5 0.5H500.5M450.5 50.5H500.5M450.5 50.5V100.5M500.5 0.5V50.5M500.5 0.5H550.5M500.5 50.5H550.5M500.5 50.5V100.5M550.5 0.5V50.5M550.5 0.5H600.5M550.5 50.5H600.5M550.5 50.5V100.5M600.5 0.5V50.5M600.5 0.5H650.5M600.5 50.5H650.5M600.5 50.5V100.5M650.5 0.5V50.5M650.5 0.5H700.5M650.5 50.5H700.5M650.5 50.5V100.5M700.5 0.5V50.5M700.5 0.5H750.5M700.5 50.5H750.5M700.5 50.5V100.5M750.5 0.5V50.5M750.5 0.5H800.5M750.5 50.5H800.5M750.5 50.5V100.5M800.5 0.5V50.5M800.5 0.5H850.5M800.5 50.5H850.5M800.5 50.5V100.5M850.5 0.5V50.5M850.5 0.5H900.5M850.5 50.5H900.5M850.5 50.5V100.5M900.5 0.5V50.5M900.5 0.5H950.5M900.5 50.5H950.5M900.5 50.5V100.5M950.5 0.5V50.5M950.5 0.5H1000.5M950.5 50.5H1000.5M950.5 50.5V100.5M1000.5 0.5V50.5M1000.5 0.5H1050.5M1000.5 50.5H1050.5M1000.5 50.5V100.5M1050.5 0.5V50.5M1050.5 0.5H1100.5M1050.5 50.5H1100.5M1050.5 50.5V100.5M1100.5 0.5V50.5M1100.5 0.5H1150.5M1100.5 50.5V100.5M1100.5 50.5H1150.5M50.5 100.5H0.5M50.5 100.5H100.5M50.5 100.5V150.5M0.5 100.5V150.5M100.5 100.5H150.5M100.5 100.5V150.5M150.5 100.5H200.5M150.5 100.5V150.5M200.5 100.5H250.5M200.5 100.5V150.5M250.5 100.5H300.5M250.5 100.5V150.5M300.5 100.5H350.5M300.5 100.5V150.5M350.5 100.5H400.5M350.5 100.5V150.5M400.5 100.5H450.5M400.5 100.5V150.5M450.5 100.5H500.5M450.5 100.5V150.5M500.5 100.5H550.5M500.5 100.5V150.5M550.5 100.5H600.5M550.5 100.5V150.5M600.5 100.5H650.5M600.5 100.5V150.5M650.5 100.5H700.5M650.5 100.5V150.5M700.5 100.5H750.5M700.5 100.5V150.5M750.5 100.5H800.5M750.5 100.5V150.5M800.5 100.5H850.5M800.5 100.5V150.5M850.5 100.5H900.5M850.5 100.5V150.5M900.5 100.5H950.5M900.5 100.5V150.5M950.5 100.5H1000.5M950.5 100.5V150.5M1000.5 100.5H1050.5M1000.5 100.5V150.5M1050.5 100.5H1100.5M1050.5 100.5V150.5M1100.5 100.5V150.5M1100.5 100.5H1150.5M50.5 150.5H0.5M50.5 150.5H100.5M50.5 150.5V200.5M0.5 150.5V200.5M100.5 150.5H150.5M100.5 150.5V200.5M150.5 150.5H200.5M150.5 150.5V200.5M200.5 150.5H250.5M200.5 150.5V200.5M250.5 150.5H300.5M250.5 150.5V200.5M300.5 150.5H350.5M300.5 150.5V200.5M350.5 150.5H400.5M350.5 150.5V200.5M400.5 150.5H450.5M400.5 150.5V200.5M450.5 150.5H500.5M450.5 150.5V200.5M500.5 150.5H550.5M500.5 150.5V200.5M550.5 150.5H600.5M550.5 150.5V200.5M600.5 150.5H650.5M600.5 150.5V200.5M650.5 150.5H700.5M650.5 150.5V200.5M700.5 150.5H750.5M700.5 150.5V200.5M750.5 150.5H800.5M750.5 150.5V200.5M800.5 150.5H850.5M800.5 150.5V200.5M850.5 150.5H900.5M850.5 150.5V200.5M900.5 150.5H950.5M900.5 150.5V200.5M950.5 150.5H1000.5M950.5 150.5V200.5M1000.5 150.5H1050.5M1000.5 150.5V200.5M1050.5 150.5H1100.5M1050.5 150.5V200.5M1100.5 150.5V200.5M1100.5 150.5H1150.5M50.5 200.5H0.5M50.5 200.5H100.5M50.5 200.5V250.5M0.5 200.5V250.5M100.5 200.5H150.5M100.5 200.5V250.5M150.5 200.5H200.5M150.5 200.5V250.5M200.5 200.5H250.5M200.5 200.5V250.5M250.5 200.5H300.5M250.5 200.5V250.5M300.5 200.5H350.5M300.5 200.5V250.5M350.5 200.5H400.5M350.5 200.5V250.5M400.5 200.5H450.5M400.5 200.5V250.5M450.5 200.5H500.5M450.5 200.5V250.5M500.5 200.5H550.5M500.5 200.5V250.5M550.5 200.5H600.5M550.5 200.5V250.5M600.5 200.5H650.5M600.5 200.5V250.5M650.5 200.5H700.5M650.5 200.5V250.5M700.5 200.5H750.5M700.5 200.5V250.5M750.5 200.5H800.5M750.5 200.5V250.5M800.5 200.5H850.5M800.5 200.5V250.5M850.5 200.5H900.5M850.5 200.5V250.5M900.5 200.5H950.5M900.5 200.5V250.5M950.5 200.5H1000.5M950.5 200.5V250.5M1000.5 200.5H1050.5M1000.5 200.5V250.5M1050.5 200.5H1100.5M1050.5 200.5V250.5M1100.5 200.5V250.5M1100.5 200.5H1150.5M50.5 250.5H0.5M50.5 250.5H100.5M50.5 250.5V300.5M0.5 250.5V300.5M100.5 250.5H150.5M100.5 250.5V300.5M150.5 250.5H200.5M150.5 250.5V300.5M200.5 250.5H250.5M200.5 250.5V300.5M250.5 250.5H300.5M250.5 250.5V300.5M300.5 250.5H350.5M300.5 250.5V300.5M350.5 250.5H400.5M350.5 250.5V300.5M400.5 250.5H450.5M400.5 250.5V300.5M450.5 250.5H500.5M450.5 250.5V300.5M500.5 250.5H550.5M500.5 250.5V300.5M550.5 250.5H600.5M550.5 250.5V300.5M600.5 250.5H650.5M600.5 250.5V300.5M650.5 250.5H700.5M650.5 250.5V300.5M700.5 250.5H750.5M700.5 250.5V300.5M750.5 250.5H800.5M750.5 250.5V300.5M800.5 250.5H850.5M800.5 250.5V300.5M850.5 250.5H900.5M850.5 250.5V300.5M900.5 250.5H950.5M900.5 250.5V300.5M950.5 250.5H1000.5M950.5 250.5V300.5M1000.5 250.5H1050.5M1000.5 250.5V300.5M1050.5 250.5H1100.5M1050.5 250.5V300.5M1100.5 250.5V300.5M1100.5 250.5L1150.5 250.5M50.5 300.5H0.5M50.5 300.5H100.5M50.5 300.5V350.5M0.5 300.5V350.5M100.5 300.5H150.5M100.5 300.5V350.5M150.5 300.5H200.5M150.5 300.5V350.5M200.5 300.5H250.5M200.5 300.5V350.5M250.5 300.5H300.5M250.5 300.5V350.5M300.5 300.5H350.5M300.5 300.5V350.5M350.5 300.5H400.5M350.5 300.5V350.5M400.5 300.5H450.5M400.5 300.5V350.5M450.5 300.5H500.5M450.5 300.5V350.5M500.5 300.5H550.5M500.5 300.5V350.5M550.5 300.5H600.5M550.5 300.5V350.5M600.5 300.5H650.5M600.5 300.5V350.5M650.5 300.5H700.5M650.5 300.5V350.5M700.5 300.5H750.5M700.5 300.5V350.5M750.5 300.5H800.5M750.5 300.5V350.5M800.5 300.5H850.5M800.5 300.5V350.5M850.5 300.5H900.5M850.5 300.5V350.5M900.5 300.5H950.5M900.5 300.5V350.5M950.5 300.5H1000.5M950.5 300.5V350.5M1000.5 300.5H1050.5M1000.5 300.5V350.5M1050.5 300.5H1100.5M1050.5 300.5V350.5M1100.5 300.5V350.5M1100.5 300.5H1150.5M50.5 350.5H0.5M50.5 350.5H100.5M50.5 350.5V400.5M0.5 350.5V400.5M100.5 350.5H150.5M100.5 350.5V400.5M150.5 350.5H200.5M150.5 350.5V400.5M200.5 350.5H250.5M200.5 350.5V400.5M250.5 350.5H300.5M250.5 350.5V400.5M300.5 350.5H350.5M300.5 350.5V400.5M350.5 350.5H400.5M350.5 350.5V400.5M400.5 350.5H450.5M400.5 350.5V400.5M450.5 350.5H500.5M450.5 350.5V400.5M500.5 350.5H550.5M500.5 350.5V400.5M550.5 350.5H600.5M550.5 350.5V400.5M600.5 350.5H650.5M600.5 350.5V400.5M650.5 350.5H700.5M650.5 350.5V400.5M700.5 350.5H750.5M700.5 350.5V400.5M750.5 350.5H800.5M750.5 350.5V400.5M800.5 350.5H850.5M800.5 350.5V400.5M850.5 350.5H900.5M850.5 350.5V400.5M900.5 350.5H950.5M900.5 350.5V400.5M950.5 350.5H1000.5M950.5 350.5V400.5M1000.5 350.5H1050.5M1000.5 350.5V400.5M1050.5 350.5H1100.5M1050.5 350.5V400.5M1100.5 350.5V400.5M1100.5 350.5H1150.5M50.5 400.5H0.5M50.5 400.5H100.5M50.5 400.5V450.5M0.5 400.5V450.5M100.5 400.5H150.5M100.5 400.5V450.5M150.5 400.5H200.5M150.5 400.5V450.5M200.5 400.5H250.5M200.5 400.5V450.5M250.5 400.5H300.5M250.5 400.5V450.5M300.5 400.5H350.5M300.5 400.5V450.5M350.5 400.5H400.5M350.5 400.5V450.5M400.5 400.5H450.5M400.5 400.5V450.5M450.5 400.5H500.5M450.5 400.5V450.5M500.5 400.5H550.5M500.5 400.5V450.5M550.5 400.5H600.5M550.5 400.5V450.5M600.5 400.5H650.5M600.5 400.5V450.5M650.5 400.5H700.5M650.5 400.5V450.5M700.5 400.5H750.5M700.5 400.5V450.5M750.5 400.5H800.5M750.5 400.5V450.5M800.5 400.5H850.5M800.5 400.5V450.5M850.5 400.5H900.5M850.5 400.5V450.5M900.5 400.5H950.5M900.5 400.5V450.5M950.5 400.5H1000.5M950.5 400.5V450.5M1000.5 400.5H1050.5M1000.5 400.5V450.5M1050.5 400.5H1100.5M1050.5 400.5V450.5M1100.5 400.5V450.5M1100.5 400.5H1150.5M50.5 450.5H0.5M50.5 450.5H100.5M50.5 450.5V500.5M0.5 450.5V500.5M100.5 450.5H150.5M100.5 450.5V500.5M150.5 450.5H200.5M150.5 450.5V500.5M200.5 450.5H250.5M200.5 450.5V500.5M250.5 450.5H300.5M250.5 450.5V500.5M300.5 450.5H350.5M300.5 450.5V500.5M350.5 450.5H400.5M350.5 450.5V500.5M400.5 450.5H450.5M400.5 450.5V500.5M450.5 450.5H500.5M450.5 450.5V500.5M500.5 450.5H550.5M500.5 450.5V500.5M550.5 450.5H600.5M550.5 450.5V500.5M600.5 450.5H650.5M600.5 450.5V500.5M650.5 450.5H700.5M650.5 450.5V500.5M700.5 450.5H750.5M700.5 450.5V500.5M750.5 450.5H800.5M750.5 450.5V500.5M800.5 450.5H850.5M800.5 450.5V500.5M850.5 450.5H900.5M850.5 450.5V500.5M900.5 450.5H950.5M900.5 450.5V500.5M950.5 450.5H1000.5M950.5 450.5V500.5M1000.5 450.5H1050.5M1000.5 450.5V500.5M1050.5 450.5H1100.5M1050.5 450.5V500.5M1100.5 450.5V500.5M1100.5 450.5H1150.5M50.5 500.5H0.5M50.5 500.5H100.5M50.5 500.5V550.5M0.5 500.5V550.5M100.5 500.5H150.5M100.5 500.5V550.5M150.5 500.5H200.5M150.5 500.5V550.5M200.5 500.5H250.5M200.5 500.5V550.5M250.5 500.5H300.5M250.5 500.5V550.5M300.5 500.5H350.5M300.5 500.5V550.5M350.5 500.5H400.5M350.5 500.5V550.5M400.5 500.5H450.5M400.5 500.5V550.5M450.5 500.5H500.5M450.5 500.5V550.5M500.5 500.5H550.5M500.5 500.5V550.5M550.5 500.5H600.5M550.5 500.5V550.5M600.5 500.5H650.5M600.5 500.5V550.5M650.5 500.5H700.5M650.5 500.5V550.5M700.5 500.5H750.5M700.5 500.5V550.5M750.5 500.5H800.5M750.5 500.5V550.5M800.5 500.5H850.5M800.5 500.5V550.5M850.5 500.5H900.5M850.5 500.5V550.5M900.5 500.5H950.5M900.5 500.5V550.5M950.5 500.5H1000.5M950.5 500.5V550.5M1000.5 500.5H1050.5M1000.5 500.5V550.5M1050.5 500.5H1100.5M1050.5 500.5V550.5M1100.5 500.5V550.5M1100.5 500.5H1150.5M50.5 550.5H0.5M50.5 550.5H100.5M50.5 550.5V600.5M0.5 550.5V600.5M100.5 550.5H150.5M100.5 550.5V600.5M150.5 550.5H200.5M150.5 550.5V600.5M200.5 550.5H250.5M200.5 550.5V600.5M250.5 550.5H300.5M250.5 550.5V600.5M300.5 550.5H350.5M300.5 550.5V600.5M350.5 550.5H400.5M350.5 550.5V600.5M400.5 550.5H450.5M400.5 550.5V600.5M450.5 550.5H500.5M450.5 550.5V600.5M500.5 550.5H550.5M500.5 550.5V600.5M550.5 550.5H600.5M550.5 550.5V600.5M600.5 550.5H650.5M600.5 550.5V600.5M650.5 550.5H700.5M650.5 550.5V600.5M700.5 550.5H750.5M700.5 550.5V600.5M750.5 550.5H800.5M750.5 550.5V600.5M800.5 550.5H850.5M800.5 550.5V600.5M850.5 550.5H900.5M850.5 550.5V600.5M900.5 550.5H950.5M900.5 550.5V600.5M950.5 550.5H1000.5M950.5 550.5V600.5M1000.5 550.5H1050.5M1000.5 550.5V600.5M1050.5 550.5H1100.5M1050.5 550.5V600.5M1100.5 550.5V600.5M1100.5 550.5H1150.5M50.5 600.5H0.5M50.5 600.5H100.5M50.5 600.5V650.5M0.5 600.5V650.5M100.5 600.5H150.5M100.5 600.5V650.5M150.5 600.5H200.5M150.5 600.5V650.5M200.5 600.5H250.5M200.5 600.5V650.5M250.5 600.5H300.5M250.5 600.5V650.5M300.5 600.5H350.5M300.5 600.5V650.5M350.5 600.5H400.5M350.5 600.5V650.5M400.5 600.5H450.5M400.5 600.5V650.5M450.5 600.5H500.5M450.5 600.5V650.5M500.5 600.5H550.5M500.5 600.5V650.5M550.5 600.5H600.5M550.5 600.5V650.5M600.5 600.5H650.5M600.5 600.5V650.5M650.5 600.5H700.5M650.5 600.5V650.5M700.5 600.5H750.5M700.5 600.5V650.5M750.5 600.5H800.5M750.5 600.5V650.5M800.5 600.5H850.5M800.5 600.5V650.5M850.5 600.5H900.5M850.5 600.5V650.5M900.5 600.5H950.5M900.5 600.5V650.5M950.5 600.5H1000.5M950.5 600.5V650.5M1000.5 600.5H1050.5M1000.5 600.5V650.5M1050.5 600.5H1100.5M1050.5 600.5V650.5M1100.5 600.5V650.5M1100.5 600.5H1150.5M50.5 650.5H0.5M50.5 650.5H100.5M50.5 650.5V700.5M0.5 650.5V700.5M100.5 650.5H150.5M100.5 650.5V700.5M150.5 650.5H200.5M150.5 650.5V700.5M200.5 650.5H250.5M200.5 650.5V700.5M250.5 650.5H300.5M250.5 650.5V700.5M300.5 650.5H350.5M300.5 650.5V700.5M350.5 650.5H400.5M350.5 650.5V700.5M400.5 650.5H450.5M400.5 650.5V700.5M450.5 650.5H500.5M450.5 650.5V700.5M500.5 650.5H550.5M500.5 650.5V700.5M550.5 650.5H600.5M550.5 650.5V700.5M600.5 650.5H650.5M600.5 650.5V700.5M650.5 650.5H700.5M650.5 650.5V700.5M700.5 650.5H750.5M700.5 650.5V700.5M750.5 650.5H800.5M750.5 650.5V700.5M800.5 650.5H850.5M800.5 650.5V700.5M850.5 650.5H900.5M850.5 650.5V700.5M900.5 650.5H950.5M900.5 650.5V700.5M950.5 650.5H1000.5M950.5 650.5V700.5M1000.5 650.5H1050.5M1000.5 650.5V700.5M1050.5 650.5H1100.5M1050.5 650.5V700.5M1100.5 650.5V700.5M1100.5 650.5H1150.5M50.5 700.5H0.5M50.5 700.5H100.5M50.5 700.5V750.5M0.5 700.5V750.5M100.5 700.5H150.5M100.5 700.5V750.5M150.5 700.5H200.5M150.5 700.5V750.5M200.5 700.5H250.5M200.5 700.5V750.5M250.5 700.5H300.5M250.5 700.5V750.5M300.5 700.5H350.5M300.5 700.5V750.5M350.5 700.5H400.5M350.5 700.5V750.5M400.5 700.5H450.5M400.5 700.5V750.5M450.5 700.5H500.5M450.5 700.5V750.5M500.5 700.5H550.5M500.5 700.5L500.5 750.5M550.5 700.5H600.5M550.5 700.5V750.5M600.5 700.5H650.5M600.5 700.5V750.5M650.5 700.5H700.5M650.5 700.5V750.5M700.5 700.5H750.5M700.5 700.5V750.5M750.5 700.5H800.5M750.5 700.5V750.5M800.5 700.5H850.5M800.5 700.5V750.5M850.5 700.5H900.5M850.5 700.5V750.5M900.5 700.5H950.5M900.5 700.5V750.5M950.5 700.5H1000.5M950.5 700.5V750.5M1000.5 700.5H1050.5M1000.5 700.5V750.5M1050.5 700.5H1100.5M1050.5 700.5V750.5M1100.5 700.5V750.5M1100.5 700.5H1150.5M50.5 750.5H0.5M50.5 750.5H100.5M50.5 750.5V800.5M0.5 750.5V800.5H50.5M100.5 750.5H150.5M100.5 750.5V800.5M150.5 750.5H200.5M150.5 750.5V800.5M200.5 750.5H250.5M200.5 750.5V800.5M250.5 750.5H300.5M250.5 750.5V800.5M300.5 750.5H350.5M300.5 750.5V800.5M350.5 750.5H400.5M350.5 750.5V800.5M400.5 750.5H450.5M400.5 750.5V800.5M450.5 750.5H500.5M450.5 750.5V800.5M500.5 750.5H550.5M500.5 750.5V800.5M550.5 750.5H600.5M550.5 750.5V800.5M600.5 750.5H650.5M600.5 750.5V800.5M650.5 750.5H700.5M650.5 750.5V800.5M700.5 750.5H750.5M700.5 750.5V800.5M750.5 750.5H800.5M750.5 750.5V800.5M800.5 750.5H850.5M800.5 750.5V800.5M850.5 750.5H900.5M850.5 750.5V800.5M900.5 750.5H950.5M900.5 750.5V800.5M950.5 750.5H1000.5M950.5 750.5V800.5M1000.5 750.5H1050.5M1000.5 750.5V800.5M1050.5 750.5H1100.5M1050.5 750.5V800.5M1100.5 750.5V800.5M1100.5 750.5H1150.5M50.5 800.5H100.5M100.5 800.5H150.5M150.5 800.5H200.5M200.5 800.5H250.5M250.5 800.5H300.5M300.5 800.5H350.5M350.5 800.5H400.5M400.5 800.5H450.5M450.5 800.5H500.5M500.5 800.5H550.5M550.5 800.5H600.5M600.5 800.5H650.5M650.5 800.5H700.5M700.5 800.5H750.5M750.5 800.5H800.5M800.5 800.5H850.5M850.5 800.5H900.5M900.5 800.5H950.5M950.5 800.5H1000.5M1000.5 800.5H1050.5M1050.5 800.5H1100.5M1100.5 800.5H1150.5M1150.5 0.5V50.5M1150.5 0.5H1200.5V50.5M1150.5 50.5H1200.5M1150.5 50.5V100.5M1200.5 50.5V100.5M1150.5 100.5H1200.5M1150.5 100.5V150.5M1200.5 100.5V150.5M1150.5 150.5H1200.5M1150.5 150.5V200.5M1200.5 150.5V200.5M1150.5 200.5H1200.5M1150.5 200.5V250.5M1200.5 200.5V250.5M1150.5 250.5H1200.5M1150.5 250.5V300.5M1200.5 250.5V300.5M1150.5 300.5H1200.5M1150.5 300.5V350.5M1200.5 300.5V350.5M1150.5 350.5H1200.5M1150.5 350.5V400.5M1200.5 350.5V400.5M1150.5 400.5H1200.5M1150.5 400.5V450.5M1200.5 400.5V450.5M1150.5 450.5H1200.5M1150.5 450.5V500.5M1200.5 450.5V500.5M1150.5 500.5H1200.5M1150.5 500.5V550.5M1200.5 500.5V550.5M1150.5 550.5H1200.5M1150.5 550.5V600.5M1200.5 550.5V600.5M1150.5 600.5H1200.5M1150.5 600.5V650.5M1200.5 600.5V650.5M1150.5 650.5H1200.5M1150.5 650.5V700.5M1200.5 650.5V700.5M1150.5 700.5H1200.5M1150.5 700.5V750.5M1200.5 700.5V750.5M1150.5 750.5H1200.5M1150.5 750.5V800.5M1200.5 750.5V800.5H1150.5"
            stroke="#222225" />
        <path
            d="M0 8.50001C0 8.77615 0.223858 9.00001 0.5 9.00001C0.776142 9.00001 1 8.77615 1 8.50001H0ZM0.5 0.500001V5.24537e-07H0V0.500001H0.5ZM8.5 1C8.77614 1 9 0.776143 9 0.500001C9 0.223858 8.77614 5.24537e-07 8.5 5.24537e-07V1ZM94.5 0C94.2239 -1.20706e-08 94 0.223858 94 0.5C94 0.776142 94.2239 1 94.5 1L94.5 0ZM100.5 0.5L100.5 2.62268e-07L100.5 0.5ZM100 6.5C100 6.77615 100.224 7 100.5 7C100.776 7 101 6.77615 101 6.5H100ZM106.5 1C106.776 1 107 0.776143 107 0.500001C107 0.223858 106.776 5.36608e-07 106.5 5.24537e-07L106.5 1ZM194.5 0C194.224 -1.20706e-08 194 0.223858 194 0.5C194 0.776142 194.224 1 194.5 1L194.5 0ZM200.5 0.5L200.5 2.62268e-07L200.5 0.5ZM200 6.5C200 6.77615 200.224 7 200.5 7C200.776 7 201 6.77615 201 6.5H200ZM206.5 1C206.776 1 207 0.776143 207 0.500001C207 0.223858 206.776 5.36608e-07 206.5 5.24537e-07L206.5 1ZM294.5 0C294.224 -1.20706e-08 294 0.223858 294 0.5C294 0.776142 294.224 1 294.5 1L294.5 0ZM300.5 0.5L300.5 2.62268e-07L300.5 0.5ZM300 6.5C300 6.77615 300.224 7 300.5 7C300.776 7 301 6.77615 301 6.5H300ZM306.5 1C306.776 1 307 0.776143 307 0.500001C307 0.223858 306.776 5.36608e-07 306.5 5.24537e-07L306.5 1ZM394.5 0C394.224 -1.20706e-08 394 0.223858 394 0.5C394 0.776142 394.224 1 394.5 1L394.5 0ZM400.5 0.5L400.5 2.62268e-07L400.5 0.5ZM400 6.5C400 6.77615 400.224 7 400.5 7C400.776 7 401 6.77615 401 6.5H400ZM406.5 1C406.776 1 407 0.776143 407 0.500001C407 0.223858 406.776 5.36608e-07 406.5 5.24537e-07L406.5 1ZM494.5 0C494.224 -1.20706e-08 494 0.223858 494 0.5C494 0.776142 494.224 1 494.5 1L494.5 0ZM500.5 0.5L500.5 2.62268e-07L500.5 0.5ZM500 6.5C500 6.77615 500.224 7 500.5 7C500.776 7 501 6.77615 501 6.5H500ZM506.5 1C506.776 1 507 0.776143 507 0.500001C507 0.223858 506.776 5.36608e-07 506.5 5.24537e-07L506.5 1ZM594.5 0C594.224 -1.20706e-08 594 0.223858 594 0.5C594 0.776142 594.224 1 594.5 1L594.5 0ZM600.5 0.5L600.5 2.62268e-07L600.5 0.5ZM600 6.5C600 6.77615 600.224 7 600.5 7C600.776 7 601 6.77615 601 6.5H600ZM606.5 1C606.776 1 607 0.776143 607 0.500001C607 0.223858 606.776 5.36608e-07 606.5 5.24537e-07L606.5 1ZM694.5 0C694.224 -1.20706e-08 694 0.223858 694 0.5C694 0.776142 694.224 1 694.5 1L694.5 0ZM700.5 0.5L700.5 2.62268e-07L700.5 0.5ZM700 6.5C700 6.77615 700.224 7 700.5 7C700.776 7 701 6.77615 701 6.5H700ZM706.5 1C706.776 1 707 0.776143 707 0.500001C707 0.223858 706.776 5.36608e-07 706.5 5.24537e-07L706.5 1ZM794.5 0C794.224 -1.20706e-08 794 0.223858 794 0.5C794 0.776142 794.224 1 794.5 1L794.5 0ZM800.5 0.5L800.5 2.62268e-07L800.5 0.5ZM800 6.5C800 6.77615 800.224 7 800.5 7C800.776 7 801 6.77615 801 6.5H800ZM806.5 1C806.776 1 807 0.776143 807 0.500001C807 0.223858 806.776 5.36608e-07 806.5 5.24537e-07L806.5 1ZM894.5 0C894.224 -1.20706e-08 894 0.223858 894 0.5C894 0.776142 894.224 1 894.5 1L894.5 0ZM900.5 0.5L900.5 2.62268e-07L900.5 0.5ZM900 6.5C900 6.77615 900.224 7 900.5 7C900.776 7 901 6.77615 901 6.5H900ZM906.5 1C906.776 1 907 0.776143 907 0.500001C907 0.223858 906.776 5.36608e-07 906.5 5.24537e-07L906.5 1ZM994.5 0C994.224 -1.20706e-08 994 0.223858 994 0.5C994 0.776142 994.224 1 994.5 1L994.5 0ZM1000.5 0.5L1000.5 2.62268e-07L1000.5 0.5ZM1000 6.5C1000 6.77615 1000.22 7 1000.5 7C1000.78 7 1001 6.77615 1001 6.5H1000ZM1006.5 1C1006.78 1 1007 0.776143 1007 0.500001C1007 0.223858 1006.78 5.36608e-07 1006.5 5.24537e-07L1006.5 1ZM106.5 701C106.776 701 107 700.777 107 700.5C107 700.224 106.776 700 106.5 700V701ZM101 694.5C101 694.224 100.776 694 100.5 694C100.224 694 100 694.224 100 694.5H101ZM94.5 700C94.2239 700 94 700.224 94 700.5C94 700.777 94.2239 701 94.5 701V700ZM206.5 701C206.776 701 207 700.777 207 700.5C207 700.224 206.776 700 206.5 700V701ZM201 694.5C201 694.224 200.776 694 200.5 694C200.224 694 200 694.224 200 694.5H201ZM194.5 700C194.224 700 194 700.224 194 700.5C194 700.777 194.224 701 194.5 701V700ZM306.5 701C306.776 701 307 700.777 307 700.5C307 700.224 306.776 700 306.5 700V701ZM301 694.5C301 694.224 300.776 694 300.5 694C300.224 694 300 694.224 300 694.5H301ZM294.5 700C294.224 700 294 700.224 294 700.5C294 700.777 294.224 701 294.5 701V700ZM406.5 701C406.776 701 407 700.777 407 700.5C407 700.224 406.776 700 406.5 700V701ZM401 694.5C401 694.224 400.776 694 400.5 694C400.224 694 400 694.224 400 694.5H401ZM394.5 700C394.224 700 394 700.224 394 700.5C394 700.777 394.224 701 394.5 701V700ZM506.5 701C506.776 701 507 700.777 507 700.5C507 700.224 506.776 700 506.5 700V701ZM501 694.5C501 694.224 500.776 694 500.5 694C500.224 694 500 694.224 500 694.5H501ZM494.5 700C494.224 700 494 700.224 494 700.5C494 700.777 494.224 701 494.5 701V700ZM606.5 701C606.776 701 607 700.777 607 700.5C607 700.224 606.776 700 606.5 700V701ZM601 694.5C601 694.224 600.776 694 600.5 694C600.224 694 600 694.224 600 694.5H601ZM594.5 700C594.224 700 594 700.224 594 700.5C594 700.777 594.224 701 594.5 701V700ZM706.5 701C706.776 701 707 700.777 707 700.5C707 700.224 706.776 700 706.5 700V701ZM701 694.5C701 694.224 700.776 694 700.5 694C700.224 694 700 694.224 700 694.5H701ZM694.5 700C694.224 700 694 700.224 694 700.5C694 700.777 694.224 701 694.5 701V700ZM806.5 701C806.776 701 807 700.777 807 700.5C807 700.224 806.776 700 806.5 700V701ZM801 694.5C801 694.224 800.776 694 800.5 694C800.224 694 800 694.224 800 694.5H801ZM794.5 700C794.224 700 794 700.224 794 700.5C794 700.777 794.224 701 794.5 701V700ZM906.5 701C906.776 701 907 700.777 907 700.5C907 700.224 906.776 700 906.5 700V701ZM901 694.5C901 694.224 900.776 694 900.5 694C900.224 694 900 694.224 900 694.5H901ZM894.5 700C894.224 700 894 700.224 894 700.5C894 700.777 894.224 701 894.5 701V700ZM1006.5 701C1006.78 701 1007 700.777 1007 700.5C1007 700.224 1006.78 700 1006.5 700V701ZM1001 694.5C1001 694.224 1000.78 694 1000.5 694C1000.22 694 1000 694.224 1000 694.5H1001ZM994.5 700C994.224 700 994 700.224 994 700.5C994 700.777 994.224 701 994.5 701V700ZM1094.5 2.62268e-07C1094.22 2.50198e-07 1094 0.223858 1094 0.5C1094 0.776143 1094.22 1 1094.5 1L1094.5 2.62268e-07ZM1100 6.5C1100 6.77615 1100.22 7 1100.5 7C1100.78 7 1101 6.77615 1101 6.5H1100ZM1101 694.5C1101 694.224 1100.78 694 1100.5 694C1100.22 694 1100 694.224 1100 694.5H1101ZM1094.5 700C1094.22 700 1094 700.224 1094 700.5C1094 700.777 1094.22 701 1094.5 701V700ZM6.5 701C6.77614 701 7 700.777 7 700.5C7 700.224 6.77614 700 6.5 700V701ZM0.5 700.5L0 700.5L0 700.5L0.5 700.5ZM1 694.5C1 694.224 0.776143 694 0.5 694C0.223858 694 2.7434e-07 694.224 2.62269e-07 694.5L1 694.5ZM0 106.5C0 106.776 0.223858 107 0.5 107C0.776142 107 1 106.776 1 106.5H0ZM6.5 101C6.77614 101 7 100.776 7 100.5C7 100.224 6.77614 100 6.5 100V101ZM1 94.5001C1 94.2239 0.776142 94.0001 0.5 94.0001C0.223858 94.0001 0 94.2239 0 94.5001H1ZM1101 594.5C1101 594.224 1100.78 594 1100.5 594C1100.22 594 1100 594.224 1100 594.5H1101ZM1094.5 600C1094.22 600 1094 600.224 1094 600.5C1094 600.777 1094.22 601 1094.5 601V600ZM1100 606.5C1100 606.777 1100.22 607 1100.5 607C1100.78 607 1101 606.777 1101 606.5H1100ZM0 206.5C0 206.776 0.223858 207 0.5 207C0.776142 207 1 206.776 1 206.5H0ZM6.5 201C6.77614 201 7 200.776 7 200.5C7 200.224 6.77614 200 6.5 200V201ZM1 194.5C1 194.224 0.776142 194 0.5 194C0.223858 194 0 194.224 0 194.5H1ZM1101 494.5C1101 494.224 1100.78 494 1100.5 494C1100.22 494 1100 494.224 1100 494.5H1101ZM1094.5 500C1094.22 500 1094 500.224 1094 500.5C1094 500.776 1094.22 501 1094.5 501V500ZM1100 506.5C1100 506.776 1100.22 507 1100.5 507C1100.78 507 1101 506.776 1101 506.5H1100ZM0 306.5C0 306.776 0.223858 307 0.5 307C0.776142 307 1 306.776 1 306.5H0ZM6.5 301C6.77614 301 7 300.776 7 300.5C7 300.224 6.77614 300 6.5 300V301ZM1 294.5C1 294.224 0.776142 294 0.5 294C0.223858 294 0 294.224 0 294.5H1ZM1101 394.5C1101 394.224 1100.78 394 1100.5 394C1100.22 394 1100 394.224 1100 394.5H1101ZM1094.5 400C1094.22 400 1094 400.224 1094 400.5C1094 400.776 1094.22 401 1094.5 401V400ZM1100 406.5C1100 406.776 1100.22 407 1100.5 407C1100.78 407 1101 406.776 1101 406.5H1100ZM0 406.5C0 406.776 0.223858 407 0.5 407C0.776142 407 1 406.776 1 406.5H0ZM6.5 401C6.77614 401 7 400.776 7 400.5C7 400.224 6.77614 400 6.5 400V401ZM1 394.5C1 394.224 0.776142 394 0.5 394C0.223858 394 0 394.224 0 394.5H1ZM1101 294.5C1101 294.224 1100.78 294 1100.5 294C1100.22 294 1100 294.224 1100 294.5H1101ZM1094.5 300C1094.22 300 1094 300.224 1094 300.5C1094 300.776 1094.22 301 1094.5 301V300ZM1100 306.5C1100 306.776 1100.22 307 1100.5 307C1100.78 307 1101 306.776 1101 306.5H1100ZM0 506.5C0 506.776 0.223858 507 0.5 507C0.776142 507 1 506.776 1 506.5H0ZM6.5 501C6.77614 501 7 500.776 7 500.5C7 500.224 6.77614 500 6.5 500V501ZM1 494.5C1 494.224 0.776142 494 0.5 494C0.223858 494 0 494.224 0 494.5H1ZM1101 194.5C1101 194.224 1100.78 194 1100.5 194C1100.22 194 1100 194.224 1100 194.5H1101ZM1094.5 200C1094.22 200 1094 200.224 1094 200.5C1094 200.776 1094.22 201 1094.5 201V200ZM1100 206.5C1100 206.776 1100.22 207 1100.5 207C1100.78 207 1101 206.776 1101 206.5H1100ZM0 606.5C0 606.777 0.223858 607 0.5 607C0.776142 607 1 606.777 1 606.5H0ZM6.5 601C6.77614 601 7 600.777 7 600.5C7 600.224 6.77614 600 6.5 600V601ZM1 594.5C1 594.224 0.776142 594 0.5 594C0.223858 594 0 594.224 0 594.5H1ZM1101 94.5001C1101 94.2239 1100.78 94.0001 1100.5 94.0001C1100.22 94.0001 1100 94.2239 1100 94.5001H1101ZM1094.5 100C1094.22 100 1094 100.224 1094 100.5C1094 100.776 1094.22 101 1094.5 101V100ZM1100 106.5C1100 106.776 1100.22 107 1100.5 107C1100.78 107 1101 106.776 1101 106.5H1100ZM94.5 100C94.2239 100 94 100.224 94 100.5C94 100.776 94.2239 101 94.5 101V100ZM100 106.5C100 106.776 100.224 107 100.5 107C100.776 107 101 106.776 101 106.5H100ZM106.5 101C106.776 101 107 100.776 107 100.5C107 100.224 106.776 100 106.5 100V101ZM101 94.5001C101 94.2239 100.776 94.0001 100.5 94.0001C100.224 94.0001 100 94.2239 100 94.5001H101ZM194.5 100C194.224 100 194 100.224 194 100.5C194 100.776 194.224 101 194.5 101V100ZM200 106.5C200 106.776 200.224 107 200.5 107C200.776 107 201 106.776 201 106.5H200ZM206.5 101C206.776 101 207 100.776 207 100.5C207 100.224 206.776 100 206.5 100V101ZM201 94.5001C201 94.2239 200.776 94.0001 200.5 94.0001C200.224 94.0001 200 94.2239 200 94.5001H201ZM294.5 100C294.224 100 294 100.224 294 100.5C294 100.776 294.224 101 294.5 101V100ZM300 106.5C300 106.776 300.224 107 300.5 107C300.776 107 301 106.776 301 106.5H300ZM306.5 101C306.776 101 307 100.776 307 100.5C307 100.224 306.776 100 306.5 100V101ZM301 94.5001C301 94.2239 300.776 94.0001 300.5 94.0001C300.224 94.0001 300 94.2239 300 94.5001H301ZM394.5 100C394.224 100 394 100.224 394 100.5C394 100.776 394.224 101 394.5 101V100ZM400 106.5C400 106.776 400.224 107 400.5 107C400.776 107 401 106.776 401 106.5H400ZM406.5 101C406.776 101 407 100.776 407 100.5C407 100.224 406.776 100 406.5 100V101ZM401 94.5001C401 94.2239 400.776 94.0001 400.5 94.0001C400.224 94.0001 400 94.2239 400 94.5001H401ZM494.5 100C494.224 100 494 100.224 494 100.5C494 100.776 494.224 101 494.5 101V100ZM500 106.5C500 106.776 500.224 107 500.5 107C500.776 107 501 106.776 501 106.5H500ZM506.5 101C506.776 101 507 100.776 507 100.5C507 100.224 506.776 100 506.5 100V101ZM501 94.5001C501 94.2239 500.776 94.0001 500.5 94.0001C500.224 94.0001 500 94.2239 500 94.5001H501ZM594.5 100C594.224 100 594 100.224 594 100.5C594 100.776 594.224 101 594.5 101V100ZM600 106.5C600 106.776 600.224 107 600.5 107C600.776 107 601 106.776 601 106.5H600ZM606.5 101C606.776 101 607 100.776 607 100.5C607 100.224 606.776 100 606.5 100V101ZM601 94.5001C601 94.2239 600.776 94.0001 600.5 94.0001C600.224 94.0001 600 94.2239 600 94.5001H601ZM694.5 100C694.224 100 694 100.224 694 100.5C694 100.776 694.224 101 694.5 101V100ZM700 106.5C700 106.776 700.224 107 700.5 107C700.776 107 701 106.776 701 106.5H700ZM706.5 101C706.776 101 707 100.776 707 100.5C707 100.224 706.776 100 706.5 100V101ZM701 94.5001C701 94.2239 700.776 94.0001 700.5 94.0001C700.224 94.0001 700 94.2239 700 94.5001H701ZM794.5 100C794.224 100 794 100.224 794 100.5C794 100.776 794.224 101 794.5 101V100ZM800 106.5C800 106.776 800.224 107 800.5 107C800.776 107 801 106.776 801 106.5H800ZM806.5 101C806.776 101 807 100.776 807 100.5C807 100.224 806.776 100 806.5 100V101ZM801 94.5001C801 94.2239 800.776 94.0001 800.5 94.0001C800.224 94.0001 800 94.2239 800 94.5001H801ZM894.5 100C894.224 100 894 100.224 894 100.5C894 100.776 894.224 101 894.5 101V100ZM900 106.5C900 106.776 900.224 107 900.5 107C900.776 107 901 106.776 901 106.5H900ZM906.5 101C906.776 101 907 100.776 907 100.5C907 100.224 906.776 100 906.5 100V101ZM901 94.5001C901 94.2239 900.776 94.0001 900.5 94.0001C900.224 94.0001 900 94.2239 900 94.5001H901ZM994.5 100C994.224 100 994 100.224 994 100.5C994 100.776 994.224 101 994.5 101V100ZM1000 106.5C1000 106.776 1000.22 107 1000.5 107C1000.78 107 1001 106.776 1001 106.5H1000ZM1006.5 101C1006.78 101 1007 100.776 1007 100.5C1007 100.224 1006.78 100 1006.5 100V101ZM1001 94.5001C1001 94.2239 1000.78 94.0001 1000.5 94.0001C1000.22 94.0001 1000 94.2239 1000 94.5001H1001ZM94.5 200C94.2239 200 94 200.224 94 200.5C94 200.776 94.2239 201 94.5 201V200ZM100 206.5C100 206.776 100.224 207 100.5 207C100.776 207 101 206.776 101 206.5H100ZM106.5 201C106.776 201 107 200.776 107 200.5C107 200.224 106.776 200 106.5 200V201ZM101 194.5C101 194.224 100.776 194 100.5 194C100.224 194 100 194.224 100 194.5H101ZM194.5 200C194.224 200 194 200.224 194 200.5C194 200.776 194.224 201 194.5 201V200ZM200 206.5C200 206.776 200.224 207 200.5 207C200.776 207 201 206.776 201 206.5H200ZM206.5 201C206.776 201 207 200.776 207 200.5C207 200.224 206.776 200 206.5 200V201ZM201 194.5C201 194.224 200.776 194 200.5 194C200.224 194 200 194.224 200 194.5H201ZM294.5 200C294.224 200 294 200.224 294 200.5C294 200.776 294.224 201 294.5 201V200ZM300 206.5C300 206.776 300.224 207 300.5 207C300.776 207 301 206.776 301 206.5H300ZM306.5 201C306.776 201 307 200.776 307 200.5C307 200.224 306.776 200 306.5 200V201ZM301 194.5C301 194.224 300.776 194 300.5 194C300.224 194 300 194.224 300 194.5H301ZM394.5 200C394.224 200 394 200.224 394 200.5C394 200.776 394.224 201 394.5 201V200ZM400 206.5C400 206.776 400.224 207 400.5 207C400.776 207 401 206.776 401 206.5H400ZM406.5 201C406.776 201 407 200.776 407 200.5C407 200.224 406.776 200 406.5 200V201ZM401 194.5C401 194.224 400.776 194 400.5 194C400.224 194 400 194.224 400 194.5H401ZM494.5 200C494.224 200 494 200.224 494 200.5C494 200.776 494.224 201 494.5 201V200ZM500 206.5C500 206.776 500.224 207 500.5 207C500.776 207 501 206.776 501 206.5H500ZM506.5 201C506.776 201 507 200.776 507 200.5C507 200.224 506.776 200 506.5 200V201ZM501 194.5C501 194.224 500.776 194 500.5 194C500.224 194 500 194.224 500 194.5H501ZM594.5 200C594.224 200 594 200.224 594 200.5C594 200.776 594.224 201 594.5 201V200ZM600 206.5C600 206.776 600.224 207 600.5 207C600.776 207 601 206.776 601 206.5H600ZM606.5 201C606.776 201 607 200.776 607 200.5C607 200.224 606.776 200 606.5 200V201ZM601 194.5C601 194.224 600.776 194 600.5 194C600.224 194 600 194.224 600 194.5H601ZM694.5 200C694.224 200 694 200.224 694 200.5C694 200.776 694.224 201 694.5 201V200ZM700 206.5C700 206.776 700.224 207 700.5 207C700.776 207 701 206.776 701 206.5H700ZM706.5 201C706.776 201 707 200.776 707 200.5C707 200.224 706.776 200 706.5 200V201ZM701 194.5C701 194.224 700.776 194 700.5 194C700.224 194 700 194.224 700 194.5H701ZM794.5 200C794.224 200 794 200.224 794 200.5C794 200.776 794.224 201 794.5 201V200ZM800 206.5C800 206.776 800.224 207 800.5 207C800.776 207 801 206.776 801 206.5H800ZM806.5 201C806.776 201 807 200.776 807 200.5C807 200.224 806.776 200 806.5 200V201ZM801 194.5C801 194.224 800.776 194 800.5 194C800.224 194 800 194.224 800 194.5H801ZM894.5 200C894.224 200 894 200.224 894 200.5C894 200.776 894.224 201 894.5 201V200ZM900 206.5C900 206.776 900.224 207 900.5 207C900.776 207 901 206.776 901 206.5H900ZM906.5 201C906.776 201 907 200.776 907 200.5C907 200.224 906.776 200 906.5 200V201ZM901 194.5C901 194.224 900.776 194 900.5 194C900.224 194 900 194.224 900 194.5H901ZM994.5 200C994.224 200 994 200.224 994 200.5C994 200.776 994.224 201 994.5 201V200ZM1000 206.5C1000 206.776 1000.22 207 1000.5 207C1000.78 207 1001 206.776 1001 206.5H1000ZM1006.5 201C1006.78 201 1007 200.776 1007 200.5C1007 200.224 1006.78 200 1006.5 200V201ZM1001 194.5C1001 194.224 1000.78 194 1000.5 194C1000.22 194 1000 194.224 1000 194.5H1001ZM94.5 300C94.2239 300 94 300.224 94 300.5C94 300.776 94.2239 301 94.5 301V300ZM100 306.5C100 306.776 100.224 307 100.5 307C100.776 307 101 306.776 101 306.5H100ZM106.5 301C106.776 301 107 300.776 107 300.5C107 300.224 106.776 300 106.5 300V301ZM101 294.5C101 294.224 100.776 294 100.5 294C100.224 294 100 294.224 100 294.5H101ZM194.5 300C194.224 300 194 300.224 194 300.5C194 300.776 194.224 301 194.5 301V300ZM200 306.5C200 306.776 200.224 307 200.5 307C200.776 307 201 306.776 201 306.5H200ZM206.5 301C206.776 301 207 300.776 207 300.5C207 300.224 206.776 300 206.5 300V301ZM201 294.5C201 294.224 200.776 294 200.5 294C200.224 294 200 294.224 200 294.5H201ZM294.5 300C294.224 300 294 300.224 294 300.5C294 300.776 294.224 301 294.5 301V300ZM300 306.5C300 306.776 300.224 307 300.5 307C300.776 307 301 306.776 301 306.5H300ZM306.5 301C306.776 301 307 300.776 307 300.5C307 300.224 306.776 300 306.5 300V301ZM301 294.5C301 294.224 300.776 294 300.5 294C300.224 294 300 294.224 300 294.5H301ZM394.5 300C394.224 300 394 300.224 394 300.5C394 300.776 394.224 301 394.5 301V300ZM400 306.5C400 306.776 400.224 307 400.5 307C400.776 307 401 306.776 401 306.5H400ZM406.5 301C406.776 301 407 300.776 407 300.5C407 300.224 406.776 300 406.5 300V301ZM401 294.5C401 294.224 400.776 294 400.5 294C400.224 294 400 294.224 400 294.5H401ZM494.5 300C494.224 300 494 300.224 494 300.5C494 300.776 494.224 301 494.5 301V300ZM500 306.5C500 306.776 500.224 307 500.5 307C500.776 307 501 306.776 501 306.5H500ZM506.5 301C506.776 301 507 300.776 507 300.5C507 300.224 506.776 300 506.5 300V301ZM501 294.5C501 294.224 500.776 294 500.5 294C500.224 294 500 294.224 500 294.5H501ZM594.5 300C594.224 300 594 300.224 594 300.5C594 300.776 594.224 301 594.5 301V300ZM600 306.5C600 306.776 600.224 307 600.5 307C600.776 307 601 306.776 601 306.5H600ZM606.5 301C606.776 301 607 300.776 607 300.5C607 300.224 606.776 300 606.5 300V301ZM601 294.5C601 294.224 600.776 294 600.5 294C600.224 294 600 294.224 600 294.5H601ZM694.5 300C694.224 300 694 300.224 694 300.5C694 300.776 694.224 301 694.5 301V300ZM700 306.5C700 306.776 700.224 307 700.5 307C700.776 307 701 306.776 701 306.5H700ZM706.5 301C706.776 301 707 300.776 707 300.5C707 300.224 706.776 300 706.5 300V301ZM701 294.5C701 294.224 700.776 294 700.5 294C700.224 294 700 294.224 700 294.5H701ZM794.5 300C794.224 300 794 300.224 794 300.5C794 300.776 794.224 301 794.5 301V300ZM800 306.5C800 306.776 800.224 307 800.5 307C800.776 307 801 306.776 801 306.5H800ZM806.5 301C806.776 301 807 300.776 807 300.5C807 300.224 806.776 300 806.5 300V301ZM801 294.5C801 294.224 800.776 294 800.5 294C800.224 294 800 294.224 800 294.5H801ZM894.5 300C894.224 300 894 300.224 894 300.5C894 300.776 894.224 301 894.5 301V300ZM900 306.5C900 306.776 900.224 307 900.5 307C900.776 307 901 306.776 901 306.5H900ZM906.5 301C906.776 301 907 300.776 907 300.5C907 300.224 906.776 300 906.5 300V301ZM901 294.5C901 294.224 900.776 294 900.5 294C900.224 294 900 294.224 900 294.5H901ZM994.5 300C994.224 300 994 300.224 994 300.5C994 300.776 994.224 301 994.5 301V300ZM1000 306.5C1000 306.776 1000.22 307 1000.5 307C1000.78 307 1001 306.776 1001 306.5H1000ZM1006.5 301C1006.78 301 1007 300.776 1007 300.5C1007 300.224 1006.78 300 1006.5 300V301ZM1001 294.5C1001 294.224 1000.78 294 1000.5 294C1000.22 294 1000 294.224 1000 294.5H1001ZM94.5 400C94.2239 400 94 400.224 94 400.5C94 400.776 94.2239 401 94.5 401V400ZM100 406.5C100 406.776 100.224 407 100.5 407C100.776 407 101 406.776 101 406.5H100ZM106.5 401C106.776 401 107 400.776 107 400.5C107 400.224 106.776 400 106.5 400V401ZM101 394.5C101 394.224 100.776 394 100.5 394C100.224 394 100 394.224 100 394.5H101ZM194.5 400C194.224 400 194 400.224 194 400.5C194 400.776 194.224 401 194.5 401V400ZM200 406.5C200 406.776 200.224 407 200.5 407C200.776 407 201 406.776 201 406.5H200ZM206.5 401C206.776 401 207 400.776 207 400.5C207 400.224 206.776 400 206.5 400V401ZM201 394.5C201 394.224 200.776 394 200.5 394C200.224 394 200 394.224 200 394.5H201ZM294.5 400C294.224 400 294 400.224 294 400.5C294 400.776 294.224 401 294.5 401V400ZM300 406.5C300 406.776 300.224 407 300.5 407C300.776 407 301 406.776 301 406.5H300ZM306.5 401C306.776 401 307 400.776 307 400.5C307 400.224 306.776 400 306.5 400V401ZM301 394.5C301 394.224 300.776 394 300.5 394C300.224 394 300 394.224 300 394.5H301ZM394.5 400C394.224 400 394 400.224 394 400.5C394 400.776 394.224 401 394.5 401V400ZM400 406.5C400 406.776 400.224 407 400.5 407C400.776 407 401 406.776 401 406.5H400ZM406.5 401C406.776 401 407 400.776 407 400.5C407 400.224 406.776 400 406.5 400V401ZM401 394.5C401 394.224 400.776 394 400.5 394C400.224 394 400 394.224 400 394.5H401ZM494.5 400C494.224 400 494 400.224 494 400.5C494 400.776 494.224 401 494.5 401V400ZM500 406.5C500 406.776 500.224 407 500.5 407C500.776 407 501 406.776 501 406.5H500ZM506.5 401C506.776 401 507 400.776 507 400.5C507 400.224 506.776 400 506.5 400V401ZM501 394.5C501 394.224 500.776 394 500.5 394C500.224 394 500 394.224 500 394.5H501ZM594.5 400C594.224 400 594 400.224 594 400.5C594 400.776 594.224 401 594.5 401V400ZM600 406.5C600 406.776 600.224 407 600.5 407C600.776 407 601 406.776 601 406.5H600ZM606.5 401C606.776 401 607 400.776 607 400.5C607 400.224 606.776 400 606.5 400V401ZM601 394.5C601 394.224 600.776 394 600.5 394C600.224 394 600 394.224 600 394.5H601ZM694.5 400C694.224 400 694 400.224 694 400.5C694 400.776 694.224 401 694.5 401V400ZM700 406.5C700 406.776 700.224 407 700.5 407C700.776 407 701 406.776 701 406.5H700ZM706.5 401C706.776 401 707 400.776 707 400.5C707 400.224 706.776 400 706.5 400V401ZM701 394.5C701 394.224 700.776 394 700.5 394C700.224 394 700 394.224 700 394.5H701ZM794.5 400C794.224 400 794 400.224 794 400.5C794 400.776 794.224 401 794.5 401V400ZM800 406.5C800 406.776 800.224 407 800.5 407C800.776 407 801 406.776 801 406.5H800ZM806.5 401C806.776 401 807 400.776 807 400.5C807 400.224 806.776 400 806.5 400V401ZM801 394.5C801 394.224 800.776 394 800.5 394C800.224 394 800 394.224 800 394.5H801ZM894.5 400C894.224 400 894 400.224 894 400.5C894 400.776 894.224 401 894.5 401V400ZM900 406.5C900 406.776 900.224 407 900.5 407C900.776 407 901 406.776 901 406.5H900ZM906.5 401C906.776 401 907 400.776 907 400.5C907 400.224 906.776 400 906.5 400V401ZM901 394.5C901 394.224 900.776 394 900.5 394C900.224 394 900 394.224 900 394.5H901ZM994.5 400C994.224 400 994 400.224 994 400.5C994 400.776 994.224 401 994.5 401V400ZM1000 406.5C1000 406.776 1000.22 407 1000.5 407C1000.78 407 1001 406.776 1001 406.5H1000ZM1006.5 401C1006.78 401 1007 400.776 1007 400.5C1007 400.224 1006.78 400 1006.5 400V401ZM1001 394.5C1001 394.224 1000.78 394 1000.5 394C1000.22 394 1000 394.224 1000 394.5H1001ZM94.5 500C94.2239 500 94 500.224 94 500.5C94 500.776 94.2239 501 94.5 501V500ZM100 506.5C100 506.776 100.224 507 100.5 507C100.776 507 101 506.776 101 506.5H100ZM106.5 501C106.776 501 107 500.776 107 500.5C107 500.224 106.776 500 106.5 500V501ZM101 494.5C101 494.224 100.776 494 100.5 494C100.224 494 100 494.224 100 494.5H101ZM194.5 500C194.224 500 194 500.224 194 500.5C194 500.776 194.224 501 194.5 501V500ZM200 506.5C200 506.776 200.224 507 200.5 507C200.776 507 201 506.776 201 506.5H200ZM206.5 501C206.776 501 207 500.776 207 500.5C207 500.224 206.776 500 206.5 500V501ZM201 494.5C201 494.224 200.776 494 200.5 494C200.224 494 200 494.224 200 494.5H201ZM294.5 500C294.224 500 294 500.224 294 500.5C294 500.776 294.224 501 294.5 501V500ZM300 506.5C300 506.776 300.224 507 300.5 507C300.776 507 301 506.776 301 506.5H300ZM306.5 501C306.776 501 307 500.776 307 500.5C307 500.224 306.776 500 306.5 500V501ZM301 494.5C301 494.224 300.776 494 300.5 494C300.224 494 300 494.224 300 494.5H301ZM394.5 500C394.224 500 394 500.224 394 500.5C394 500.776 394.224 501 394.5 501V500ZM400 506.5C400 506.776 400.224 507 400.5 507C400.776 507 401 506.776 401 506.5H400ZM406.5 501C406.776 501 407 500.776 407 500.5C407 500.224 406.776 500 406.5 500V501ZM401 494.5C401 494.224 400.776 494 400.5 494C400.224 494 400 494.224 400 494.5H401ZM494.5 500C494.224 500 494 500.224 494 500.5C494 500.776 494.224 501 494.5 501V500ZM500 506.5C500 506.776 500.224 507 500.5 507C500.776 507 501 506.776 501 506.5H500ZM506.5 501C506.776 501 507 500.776 507 500.5C507 500.224 506.776 500 506.5 500V501ZM501 494.5C501 494.224 500.776 494 500.5 494C500.224 494 500 494.224 500 494.5H501ZM594.5 500C594.224 500 594 500.224 594 500.5C594 500.776 594.224 501 594.5 501V500ZM600 506.5C600 506.776 600.224 507 600.5 507C600.776 507 601 506.776 601 506.5H600ZM606.5 501C606.776 501 607 500.776 607 500.5C607 500.224 606.776 500 606.5 500V501ZM601 494.5C601 494.224 600.776 494 600.5 494C600.224 494 600 494.224 600 494.5H601ZM694.5 500C694.224 500 694 500.224 694 500.5C694 500.776 694.224 501 694.5 501V500ZM700 506.5C700 506.776 700.224 507 700.5 507C700.776 507 701 506.776 701 506.5H700ZM706.5 501C706.776 501 707 500.776 707 500.5C707 500.224 706.776 500 706.5 500V501ZM701 494.5C701 494.224 700.776 494 700.5 494C700.224 494 700 494.224 700 494.5H701ZM794.5 500C794.224 500 794 500.224 794 500.5C794 500.776 794.224 501 794.5 501V500ZM800 506.5C800 506.776 800.224 507 800.5 507C800.776 507 801 506.776 801 506.5H800ZM806.5 501C806.776 501 807 500.776 807 500.5C807 500.224 806.776 500 806.5 500V501ZM801 494.5C801 494.224 800.776 494 800.5 494C800.224 494 800 494.224 800 494.5H801ZM894.5 500C894.224 500 894 500.224 894 500.5C894 500.776 894.224 501 894.5 501V500ZM900 506.5C900 506.776 900.224 507 900.5 507C900.776 507 901 506.776 901 506.5H900ZM906.5 501C906.776 501 907 500.776 907 500.5C907 500.224 906.776 500 906.5 500V501ZM901 494.5C901 494.224 900.776 494 900.5 494C900.224 494 900 494.224 900 494.5H901ZM994.5 500C994.224 500 994 500.224 994 500.5C994 500.776 994.224 501 994.5 501V500ZM1000 506.5C1000 506.776 1000.22 507 1000.5 507C1000.78 507 1001 506.776 1001 506.5H1000ZM1006.5 501C1006.78 501 1007 500.776 1007 500.5C1007 500.224 1006.78 500 1006.5 500V501ZM1001 494.5C1001 494.224 1000.78 494 1000.5 494C1000.22 494 1000 494.224 1000 494.5H1001ZM94.5 600C94.2239 600 94 600.224 94 600.5C94 600.777 94.2239 601 94.5 601V600ZM100 606.5C100 606.777 100.224 607 100.5 607C100.776 607 101 606.777 101 606.5H100ZM106.5 601C106.776 601 107 600.777 107 600.5C107 600.224 106.776 600 106.5 600V601ZM101 594.5C101 594.224 100.776 594 100.5 594C100.224 594 100 594.224 100 594.5H101ZM194.5 600C194.224 600 194 600.224 194 600.5C194 600.777 194.224 601 194.5 601V600ZM200 606.5C200 606.777 200.224 607 200.5 607C200.776 607 201 606.777 201 606.5H200ZM206.5 601C206.776 601 207 600.777 207 600.5C207 600.224 206.776 600 206.5 600V601ZM201 594.5C201 594.224 200.776 594 200.5 594C200.224 594 200 594.224 200 594.5H201ZM294.5 600C294.224 600 294 600.224 294 600.5C294 600.777 294.224 601 294.5 601V600ZM300 606.5C300 606.777 300.224 607 300.5 607C300.776 607 301 606.777 301 606.5H300ZM306.5 601C306.776 601 307 600.777 307 600.5C307 600.224 306.776 600 306.5 600V601ZM301 594.5C301 594.224 300.776 594 300.5 594C300.224 594 300 594.224 300 594.5H301ZM394.5 600C394.224 600 394 600.224 394 600.5C394 600.777 394.224 601 394.5 601V600ZM400 606.5C400 606.777 400.224 607 400.5 607C400.776 607 401 606.777 401 606.5H400ZM406.5 601C406.776 601 407 600.777 407 600.5C407 600.224 406.776 600 406.5 600V601ZM401 594.5C401 594.224 400.776 594 400.5 594C400.224 594 400 594.224 400 594.5H401ZM494.5 600C494.224 600 494 600.224 494 600.5C494 600.777 494.224 601 494.5 601V600ZM500 606.5C500 606.777 500.224 607 500.5 607C500.776 607 501 606.777 501 606.5H500ZM506.5 601C506.776 601 507 600.777 507 600.5C507 600.224 506.776 600 506.5 600V601ZM501 594.5C501 594.224 500.776 594 500.5 594C500.224 594 500 594.224 500 594.5H501ZM594.5 600C594.224 600 594 600.224 594 600.5C594 600.777 594.224 601 594.5 601V600ZM600 606.5C600 606.777 600.224 607 600.5 607C600.776 607 601 606.777 601 606.5H600ZM606.5 601C606.776 601 607 600.777 607 600.5C607 600.224 606.776 600 606.5 600V601ZM601 594.5C601 594.224 600.776 594 600.5 594C600.224 594 600 594.224 600 594.5H601ZM694.5 600C694.224 600 694 600.224 694 600.5C694 600.777 694.224 601 694.5 601V600ZM700 606.5C700 606.777 700.224 607 700.5 607C700.776 607 701 606.777 701 606.5H700ZM706.5 601C706.776 601 707 600.777 707 600.5C707 600.224 706.776 600 706.5 600V601ZM701 594.5C701 594.224 700.776 594 700.5 594C700.224 594 700 594.224 700 594.5H701ZM794.5 600C794.224 600 794 600.224 794 600.5C794 600.777 794.224 601 794.5 601V600ZM800 606.5C800 606.777 800.224 607 800.5 607C800.776 607 801 606.777 801 606.5H800ZM806.5 601C806.776 601 807 600.777 807 600.5C807 600.224 806.776 600 806.5 600V601ZM801 594.5C801 594.224 800.776 594 800.5 594C800.224 594 800 594.224 800 594.5H801ZM894.5 600C894.224 600 894 600.224 894 600.5C894 600.777 894.224 601 894.5 601V600ZM900 606.5C900 606.777 900.224 607 900.5 607C900.776 607 901 606.777 901 606.5H900ZM906.5 601C906.776 601 907 600.777 907 600.5C907 600.224 906.776 600 906.5 600V601ZM901 594.5C901 594.224 900.776 594 900.5 594C900.224 594 900 594.224 900 594.5H901ZM994.5 600C994.224 600 994 600.224 994 600.5C994 600.777 994.224 601 994.5 601V600ZM1000 606.5C1000 606.777 1000.22 607 1000.5 607C1000.78 607 1001 606.777 1001 606.5H1000ZM1006.5 601C1006.78 601 1007 600.777 1007 600.5C1007 600.224 1006.78 600 1006.5 600V601ZM1001 594.5C1001 594.224 1000.78 594 1000.5 594C1000.22 594 1000 594.224 1000 594.5H1001ZM1106.5 1C1106.78 1 1107 0.776143 1107 0.5C1107 0.223858 1106.78 2.50198e-07 1106.5 2.62268e-07L1106.5 1ZM1106.5 701C1106.78 701 1107 700.777 1107 700.5C1107 700.224 1106.78 700 1106.5 700V701ZM1192.5 2.62268e-07C1192.22 2.62268e-07 1192 0.223858 1192 0.5C1192 0.776143 1192.22 1 1192.5 1V2.62268e-07ZM1200.5 0.5H1201V2.62268e-07H1200.5V0.5ZM1200 8.50001C1200 8.77615 1200.22 9.00001 1200.5 9.00001C1200.78 9.00001 1201 8.77615 1201 8.50001H1200ZM1201 694.5C1201 694.224 1200.78 694 1200.5 694C1200.22 694 1200 694.224 1200 694.5H1201ZM1194.5 700C1194.22 700 1194 700.224 1194 700.5C1194 700.777 1194.22 701 1194.5 701V700ZM1201 594.5C1201 594.224 1200.78 594 1200.5 594C1200.22 594 1200 594.224 1200 594.5H1201ZM1194.5 600C1194.22 600 1194 600.224 1194 600.5C1194 600.777 1194.22 601 1194.5 601V600ZM1200 606.5C1200 606.777 1200.22 607 1200.5 607C1200.78 607 1201 606.777 1201 606.5H1200ZM1201 494.5C1201 494.224 1200.78 494 1200.5 494C1200.22 494 1200 494.224 1200 494.5H1201ZM1194.5 500C1194.22 500 1194 500.224 1194 500.5C1194 500.776 1194.22 501 1194.5 501V500ZM1200 506.5C1200 506.776 1200.22 507 1200.5 507C1200.78 507 1201 506.776 1201 506.5H1200ZM1201 394.5C1201 394.224 1200.78 394 1200.5 394C1200.22 394 1200 394.224 1200 394.5H1201ZM1194.5 400C1194.22 400 1194 400.224 1194 400.5C1194 400.776 1194.22 401 1194.5 401V400ZM1200 406.5C1200 406.776 1200.22 407 1200.5 407C1200.78 407 1201 406.776 1201 406.5H1200ZM1201 294.5C1201 294.224 1200.78 294 1200.5 294C1200.22 294 1200 294.224 1200 294.5H1201ZM1194.5 300C1194.22 300 1194 300.224 1194 300.5C1194 300.776 1194.22 301 1194.5 301V300ZM1200 306.5C1200 306.776 1200.22 307 1200.5 307C1200.78 307 1201 306.776 1201 306.5H1200ZM1201 194.5C1201 194.224 1200.78 194 1200.5 194C1200.22 194 1200 194.224 1200 194.5H1201ZM1194.5 200C1194.22 200 1194 200.224 1194 200.5C1194 200.776 1194.22 201 1194.5 201V200ZM1200 206.5C1200 206.776 1200.22 207 1200.5 207C1200.78 207 1201 206.776 1201 206.5H1200ZM1201 94.5001C1201 94.2239 1200.78 94.0001 1200.5 94.0001C1200.22 94.0001 1200 94.2239 1200 94.5001H1201ZM1194.5 100C1194.22 100 1194 100.224 1194 100.5C1194 100.776 1194.22 101 1194.5 101V100ZM1200 106.5C1200 106.776 1200.22 107 1200.5 107C1200.78 107 1201 106.776 1201 106.5H1200ZM1106.5 101C1106.78 101 1107 100.776 1107 100.5C1107 100.224 1106.78 100 1106.5 100V101ZM1106.5 201C1106.78 201 1107 200.776 1107 200.5C1107 200.224 1106.78 200 1106.5 200V201ZM1106.5 301C1106.78 301 1107 300.776 1107 300.5C1107 300.224 1106.78 300 1106.5 300V301ZM1106.5 401C1106.78 401 1107 400.776 1107 400.5C1107 400.224 1106.78 400 1106.5 400V401ZM1106.5 501C1106.78 501 1107 500.776 1107 500.5C1107 500.224 1106.78 500 1106.5 500V501ZM1106.5 601C1106.78 601 1107 600.777 1107 600.5C1107 600.224 1106.78 600 1106.5 600V601ZM106.5 801C106.776 801 107 800.777 107 800.5C107 800.224 106.776 800 106.5 800V801ZM101 794.5C101 794.224 100.776 794 100.5 794C100.224 794 100 794.224 100 794.5H101ZM94.5 800C94.2239 800 94 800.224 94 800.5C94 800.777 94.2239 801 94.5 801V800ZM206.5 801C206.776 801 207 800.777 207 800.5C207 800.224 206.776 800 206.5 800V801ZM201 794.5C201 794.224 200.776 794 200.5 794C200.224 794 200 794.224 200 794.5H201ZM194.5 800C194.224 800 194 800.224 194 800.5C194 800.777 194.224 801 194.5 801V800ZM306.5 801C306.776 801 307 800.777 307 800.5C307 800.224 306.776 800 306.5 800V801ZM301 794.5C301 794.224 300.776 794 300.5 794C300.224 794 300 794.224 300 794.5H301ZM294.5 800C294.224 800 294 800.224 294 800.5C294 800.777 294.224 801 294.5 801V800ZM406.5 801C406.776 801 407 800.777 407 800.5C407 800.224 406.776 800 406.5 800V801ZM401 794.5C401 794.224 400.776 794 400.5 794C400.224 794 400 794.224 400 794.5H401ZM394.5 800C394.224 800 394 800.224 394 800.5C394 800.777 394.224 801 394.5 801V800ZM506.5 801C506.776 801 507 800.777 507 800.5C507 800.224 506.776 800 506.5 800V801ZM501 794.5C501 794.224 500.776 794 500.5 794C500.224 794 500 794.224 500 794.5H501ZM494.5 800C494.224 800 494 800.224 494 800.5C494 800.777 494.224 801 494.5 801V800ZM606.5 801C606.776 801 607 800.777 607 800.5C607 800.224 606.776 800 606.5 800V801ZM601 794.5C601 794.224 600.776 794 600.5 794C600.224 794 600 794.224 600 794.5H601ZM594.5 800C594.224 800 594 800.224 594 800.5C594 800.777 594.224 801 594.5 801V800ZM706.5 801C706.776 801 707 800.777 707 800.5C707 800.224 706.776 800 706.5 800V801ZM701 794.5C701 794.224 700.776 794 700.5 794C700.224 794 700 794.224 700 794.5H701ZM694.5 800C694.224 800 694 800.224 694 800.5C694 800.777 694.224 801 694.5 801V800ZM806.5 801C806.776 801 807 800.777 807 800.5C807 800.224 806.776 800 806.5 800V801ZM801 794.5C801 794.224 800.776 794 800.5 794C800.224 794 800 794.224 800 794.5H801ZM794.5 800C794.224 800 794 800.224 794 800.5C794 800.777 794.224 801 794.5 801V800ZM906.5 801C906.776 801 907 800.777 907 800.5C907 800.224 906.776 800 906.5 800V801ZM901 794.5C901 794.224 900.776 794 900.5 794C900.224 794 900 794.224 900 794.5H901ZM894.5 800C894.224 800 894 800.224 894 800.5C894 800.777 894.224 801 894.5 801V800ZM1006.5 801C1006.78 801 1007 800.777 1007 800.5C1007 800.224 1006.78 800 1006.5 800V801ZM1001 794.5C1001 794.224 1000.78 794 1000.5 794C1000.22 794 1000 794.224 1000 794.5H1001ZM994.5 800C994.224 800 994 800.224 994 800.5C994 800.777 994.224 801 994.5 801V800ZM1101 794.5C1101 794.224 1100.78 794 1100.5 794C1100.22 794 1100 794.224 1100 794.5H1101ZM1094.5 800C1094.22 800 1094 800.224 1094 800.5C1094 800.777 1094.22 801 1094.5 801V800ZM8.5 801C8.77614 801 9 800.777 9 800.5C9 800.224 8.77614 800 8.5 800V801ZM0.5 800.5H2.62269e-07V801H0.5V800.5ZM1 792.5C1 792.224 0.776143 792 0.5 792C0.223858 792 2.62269e-07 792.224 2.62269e-07 792.5H1ZM1100 706.5C1100 706.777 1100.22 707 1100.5 707C1100.78 707 1101 706.777 1101 706.5H1100ZM2.62269e-07 706.5C2.7434e-07 706.777 0.223858 707 0.5 707C0.776143 707 1 706.777 1 706.5L2.62269e-07 706.5ZM100 706.5C100 706.777 100.224 707 100.5 707C100.776 707 101 706.777 101 706.5H100ZM200 706.5C200 706.777 200.224 707 200.5 707C200.776 707 201 706.777 201 706.5H200ZM300 706.5C300 706.777 300.224 707 300.5 707C300.776 707 301 706.777 301 706.5H300ZM400 706.5C400 706.777 400.224 707 400.5 707C400.776 707 401 706.777 401 706.5H400ZM500 706.5C500 706.777 500.224 707 500.5 707C500.776 707 501 706.777 501 706.5H500ZM600 706.5C600 706.777 600.224 707 600.5 707C600.776 707 601 706.777 601 706.5H600ZM700 706.5C700 706.777 700.224 707 700.5 707C700.776 707 701 706.777 701 706.5H700ZM800 706.5C800 706.777 800.224 707 800.5 707C800.776 707 801 706.777 801 706.5H800ZM900 706.5C900 706.777 900.224 707 900.5 707C900.776 707 901 706.777 901 706.5H900ZM1000 706.5C1000 706.777 1000.22 707 1000.5 707C1000.78 707 1001 706.777 1001 706.5H1000ZM1106.5 801C1106.78 801 1107 800.777 1107 800.5C1107 800.224 1106.78 800 1106.5 800V801ZM1201 792.5C1201 792.224 1200.78 792 1200.5 792C1200.22 792 1200 792.224 1200 792.5H1201ZM1200.5 800.5V801H1201V800.5H1200.5ZM1192.5 800C1192.22 800 1192 800.224 1192 800.5C1192 800.777 1192.22 801 1192.5 801V800ZM1200 706.5C1200 706.777 1200.22 707 1200.5 707C1200.78 707 1201 706.777 1201 706.5H1200ZM1 8.50001V0.500001H0V8.50001H1ZM0.5 1H8.5V5.24537e-07H0.5V1ZM94.5 1L100.5 1L100.5 2.62268e-07L94.5 0L94.5 1ZM100 0.5V6.5H101V0.5H100ZM100.5 1L106.5 1L106.5 5.24537e-07L100.5 2.62268e-07L100.5 1ZM194.5 1L200.5 1L200.5 2.62268e-07L194.5 0L194.5 1ZM200 0.5V6.5H201V0.5H200ZM200.5 1L206.5 1L206.5 5.24537e-07L200.5 2.62268e-07L200.5 1ZM294.5 1L300.5 1L300.5 2.62268e-07L294.5 0L294.5 1ZM300 0.5V6.5H301V0.5H300ZM300.5 1L306.5 1L306.5 5.24537e-07L300.5 2.62268e-07L300.5 1ZM394.5 1L400.5 1L400.5 2.62268e-07L394.5 0L394.5 1ZM400 0.5V6.5H401V0.5H400ZM400.5 1L406.5 1L406.5 5.24537e-07L400.5 2.62268e-07L400.5 1ZM494.5 1L500.5 1L500.5 2.62268e-07L494.5 0L494.5 1ZM500 0.5V6.5H501V0.5H500ZM500.5 1L506.5 1L506.5 5.24537e-07L500.5 2.62268e-07L500.5 1ZM594.5 1L600.5 1L600.5 2.62268e-07L594.5 0L594.5 1ZM600 0.5V6.5H601V0.5H600ZM600.5 1L606.5 1L606.5 5.24537e-07L600.5 2.62268e-07L600.5 1ZM694.5 1L700.5 1L700.5 2.62268e-07L694.5 0L694.5 1ZM700 0.5V6.5H701V0.5H700ZM700.5 1L706.5 1L706.5 5.24537e-07L700.5 2.62268e-07L700.5 1ZM794.5 1L800.5 1L800.5 2.62268e-07L794.5 0L794.5 1ZM800 0.5V6.5H801V0.5H800ZM800.5 1L806.5 1L806.5 5.24537e-07L800.5 2.62268e-07L800.5 1ZM894.5 1L900.5 1L900.5 2.62268e-07L894.5 0L894.5 1ZM900 0.5V6.5H901V0.5H900ZM900.5 1L906.5 1L906.5 5.24537e-07L900.5 2.62268e-07L900.5 1ZM994.5 1L1000.5 1L1000.5 2.62268e-07L994.5 0L994.5 1ZM1000 0.5V6.5H1001V0.5H1000ZM1000.5 1L1006.5 1L1006.5 5.24537e-07L1000.5 2.62268e-07L1000.5 1ZM106.5 700H100.5V701H106.5V700ZM101 700.5V694.5H100V700.5H101ZM100.5 700H94.5V701H100.5V700ZM206.5 700H200.5V701H206.5V700ZM201 700.5V694.5H200V700.5H201ZM200.5 700H194.5V701H200.5V700ZM306.5 700H300.5V701H306.5V700ZM301 700.5V694.5H300V700.5H301ZM300.5 700H294.5V701H300.5V700ZM406.5 700H400.5V701H406.5V700ZM401 700.5V694.5H400V700.5H401ZM400.5 700H394.5V701H400.5V700ZM506.5 700H500.5V701H506.5V700ZM501 700.5V694.5H500V700.5H501ZM500.5 700H494.5V701H500.5V700ZM606.5 700H600.5V701H606.5V700ZM601 700.5V694.5H600V700.5H601ZM600.5 700H594.5V701H600.5V700ZM706.5 700H700.5V701H706.5V700ZM701 700.5V694.5H700V700.5H701ZM700.5 700H694.5V701H700.5V700ZM806.5 700H800.5V701H806.5V700ZM801 700.5V694.5H800V700.5H801ZM800.5 700H794.5V701H800.5V700ZM906.5 700H900.5V701H906.5V700ZM901 700.5V694.5H900V700.5H901ZM900.5 700H894.5V701H900.5V700ZM1006.5 700H1000.5V701H1006.5V700ZM1001 700.5V694.5H1000V700.5H1001ZM1000.5 700H994.5V701H1000.5V700ZM1094.5 1L1100.5 1L1100.5 5.24537e-07L1094.5 2.62268e-07L1094.5 1ZM1100 0.500001V6.5H1101V0.500001H1100ZM1100 694.5V700.5H1101V694.5H1100ZM1100.5 700H1094.5V701H1100.5V700ZM6.5 700H0.5V701H6.5V700ZM1 700.5L1 694.5L2.62269e-07 694.5L0 700.5L1 700.5ZM1 106.5V100.5H0V106.5H1ZM0.5 101H6.5V100H0.5V101ZM1 100.5V94.5001H0V100.5H1ZM1100 594.5V600.5H1101V594.5H1100ZM1100.5 600H1094.5V601H1100.5V600ZM1100 600.5V606.5H1101V600.5H1100ZM1 206.5V200.5H0V206.5H1ZM0.5 201H6.5V200H0.5V201ZM1 200.5V194.5H0V200.5H1ZM1100 494.5V500.5H1101V494.5H1100ZM1100.5 500H1094.5V501H1100.5V500ZM1100 500.5V506.5H1101V500.5H1100ZM1 306.5V300.5H0V306.5H1ZM0.5 301H6.5V300H0.5V301ZM1 300.5V294.5H0V300.5H1ZM1100 394.5V400.5H1101V394.5H1100ZM1100.5 400H1094.5V401H1100.5V400ZM1100 400.5V406.5H1101V400.5H1100ZM1 406.5V400.5H0V406.5H1ZM0.5 401H6.5V400H0.5V401ZM1 400.5V394.5H0V400.5H1ZM1100 294.5V300.5H1101V294.5H1100ZM1100.5 300H1094.5V301H1100.5V300ZM1100 300.5V306.5H1101V300.5H1100ZM1 506.5V500.5H0V506.5H1ZM0.5 501H6.5V500H0.5V501ZM1 500.5V494.5H0V500.5H1ZM1100 194.5V200.5H1101V194.5H1100ZM1100.5 200H1094.5V201H1100.5V200ZM1100 200.5V206.5H1101V200.5H1100ZM1 606.5V600.5H0V606.5H1ZM0.5 601H6.5V600H0.5V601ZM1 600.5V594.5H0V600.5H1ZM1100 94.5001V100.5H1101V94.5001H1100ZM1100.5 100H1094.5V101H1100.5V100ZM1100 100.5V106.5H1101V100.5H1100ZM94.5 101H100.5V100H94.5V101ZM100 100.5V106.5H101V100.5H100ZM100.5 101H106.5V100H100.5V101ZM101 100.5V94.5001H100V100.5H101ZM194.5 101H200.5V100H194.5V101ZM200 100.5V106.5H201V100.5H200ZM200.5 101H206.5V100H200.5V101ZM201 100.5V94.5001H200V100.5H201ZM294.5 101H300.5V100H294.5V101ZM300 100.5V106.5H301V100.5H300ZM300.5 101H306.5V100H300.5V101ZM301 100.5V94.5001H300V100.5H301ZM394.5 101H400.5V100H394.5V101ZM400 100.5V106.5H401V100.5H400ZM400.5 101H406.5V100H400.5V101ZM401 100.5V94.5001H400V100.5H401ZM494.5 101H500.5V100H494.5V101ZM500 100.5V106.5H501V100.5H500ZM500.5 101H506.5V100H500.5V101ZM501 100.5V94.5001H500V100.5H501ZM594.5 101H600.5V100H594.5V101ZM600 100.5V106.5H601V100.5H600ZM600.5 101H606.5V100H600.5V101ZM601 100.5V94.5001H600V100.5H601ZM694.5 101H700.5V100H694.5V101ZM700 100.5V106.5H701V100.5H700ZM700.5 101H706.5V100H700.5V101ZM701 100.5V94.5001H700V100.5H701ZM794.5 101H800.5V100H794.5V101ZM800 100.5V106.5H801V100.5H800ZM800.5 101H806.5V100H800.5V101ZM801 100.5V94.5001H800V100.5H801ZM894.5 101H900.5V100H894.5V101ZM900 100.5V106.5H901V100.5H900ZM900.5 101H906.5V100H900.5V101ZM901 100.5V94.5001H900V100.5H901ZM994.5 101H1000.5V100H994.5V101ZM1000 100.5V106.5H1001V100.5H1000ZM1000.5 101H1006.5V100H1000.5V101ZM1001 100.5V94.5001H1000V100.5H1001ZM94.5 201H100.5V200H94.5V201ZM100 200.5V206.5H101V200.5H100ZM100.5 201H106.5V200H100.5V201ZM101 200.5V194.5H100V200.5H101ZM194.5 201H200.5V200H194.5V201ZM200 200.5V206.5H201V200.5H200ZM200.5 201H206.5V200H200.5V201ZM201 200.5V194.5H200V200.5H201ZM294.5 201H300.5V200H294.5V201ZM300 200.5V206.5H301V200.5H300ZM300.5 201H306.5V200H300.5V201ZM301 200.5V194.5H300V200.5H301ZM394.5 201H400.5V200H394.5V201ZM400 200.5V206.5H401V200.5H400ZM400.5 201H406.5V200H400.5V201ZM401 200.5V194.5H400V200.5H401ZM494.5 201H500.5V200H494.5V201ZM500 200.5V206.5H501V200.5H500ZM500.5 201H506.5V200H500.5V201ZM501 200.5V194.5H500V200.5H501ZM594.5 201H600.5V200H594.5V201ZM600 200.5V206.5H601V200.5H600ZM600.5 201H606.5V200H600.5V201ZM601 200.5V194.5H600V200.5H601ZM694.5 201H700.5V200H694.5V201ZM700 200.5V206.5H701V200.5H700ZM700.5 201H706.5V200H700.5V201ZM701 200.5V194.5H700V200.5H701ZM794.5 201H800.5V200H794.5V201ZM800 200.5V206.5H801V200.5H800ZM800.5 201H806.5V200H800.5V201ZM801 200.5V194.5H800V200.5H801ZM894.5 201H900.5V200H894.5V201ZM900 200.5V206.5H901V200.5H900ZM900.5 201H906.5V200H900.5V201ZM901 200.5V194.5H900V200.5H901ZM994.5 201H1000.5V200H994.5V201ZM1000 200.5V206.5H1001V200.5H1000ZM1000.5 201H1006.5V200H1000.5V201ZM1001 200.5V194.5H1000V200.5H1001ZM94.5 301H100.5V300H94.5V301ZM100 300.5V306.5H101V300.5H100ZM100.5 301H106.5V300H100.5V301ZM101 300.5V294.5H100V300.5H101ZM194.5 301H200.5V300H194.5V301ZM200 300.5V306.5H201V300.5H200ZM200.5 301H206.5V300H200.5V301ZM201 300.5V294.5H200V300.5H201ZM294.5 301H300.5V300H294.5V301ZM300 300.5V306.5H301V300.5H300ZM300.5 301H306.5V300H300.5V301ZM301 300.5V294.5H300V300.5H301ZM394.5 301H400.5V300H394.5V301ZM400 300.5V306.5H401V300.5H400ZM400.5 301H406.5V300H400.5V301ZM401 300.5V294.5H400V300.5H401ZM494.5 301H500.5V300H494.5V301ZM500 300.5V306.5H501V300.5H500ZM500.5 301H506.5V300H500.5V301ZM501 300.5V294.5H500V300.5H501ZM594.5 301H600.5V300H594.5V301ZM600 300.5V306.5H601V300.5H600ZM600.5 301H606.5V300H600.5V301ZM601 300.5V294.5H600V300.5H601ZM694.5 301H700.5V300H694.5V301ZM700 300.5V306.5H701V300.5H700ZM700.5 301H706.5V300H700.5V301ZM701 300.5V294.5H700V300.5H701ZM794.5 301H800.5V300H794.5V301ZM800 300.5V306.5H801V300.5H800ZM800.5 301H806.5V300H800.5V301ZM801 300.5V294.5H800V300.5H801ZM894.5 301H900.5V300H894.5V301ZM900 300.5V306.5H901V300.5H900ZM900.5 301H906.5V300H900.5V301ZM901 300.5V294.5H900V300.5H901ZM994.5 301H1000.5V300H994.5V301ZM1000 300.5V306.5H1001V300.5H1000ZM1000.5 301H1006.5V300H1000.5V301ZM1001 300.5V294.5H1000V300.5H1001ZM94.5 401H100.5V400H94.5V401ZM100 400.5V406.5H101V400.5H100ZM100.5 401H106.5V400H100.5V401ZM101 400.5V394.5H100V400.5H101ZM194.5 401H200.5V400H194.5V401ZM200 400.5V406.5H201V400.5H200ZM200.5 401H206.5V400H200.5V401ZM201 400.5V394.5H200V400.5H201ZM294.5 401H300.5V400H294.5V401ZM300 400.5V406.5H301V400.5H300ZM300.5 401H306.5V400H300.5V401ZM301 400.5V394.5H300V400.5H301ZM394.5 401H400.5V400H394.5V401ZM400 400.5V406.5H401V400.5H400ZM400.5 401H406.5V400H400.5V401ZM401 400.5V394.5H400V400.5H401ZM494.5 401H500.5V400H494.5V401ZM500 400.5V406.5H501V400.5H500ZM500.5 401H506.5V400H500.5V401ZM501 400.5V394.5H500V400.5H501ZM594.5 401H600.5V400H594.5V401ZM600 400.5V406.5H601V400.5H600ZM600.5 401H606.5V400H600.5V401ZM601 400.5V394.5H600V400.5H601ZM694.5 401H700.5V400H694.5V401ZM700 400.5V406.5H701V400.5H700ZM700.5 401H706.5V400H700.5V401ZM701 400.5V394.5H700V400.5H701ZM794.5 401H800.5V400H794.5V401ZM800 400.5V406.5H801V400.5H800ZM800.5 401H806.5V400H800.5V401ZM801 400.5V394.5H800V400.5H801ZM894.5 401H900.5V400H894.5V401ZM900 400.5V406.5H901V400.5H900ZM900.5 401H906.5V400H900.5V401ZM901 400.5V394.5H900V400.5H901ZM994.5 401H1000.5V400H994.5V401ZM1000 400.5V406.5H1001V400.5H1000ZM1000.5 401H1006.5V400H1000.5V401ZM1001 400.5V394.5H1000V400.5H1001ZM94.5 501H100.5V500H94.5V501ZM100 500.5V506.5H101V500.5H100ZM100.5 501H106.5V500H100.5V501ZM101 500.5V494.5H100V500.5H101ZM194.5 501H200.5V500H194.5V501ZM200 500.5V506.5H201V500.5H200ZM200.5 501H206.5V500H200.5V501ZM201 500.5V494.5H200V500.5H201ZM294.5 501H300.5V500H294.5V501ZM300 500.5V506.5H301V500.5H300ZM300.5 501H306.5V500H300.5V501ZM301 500.5V494.5H300V500.5H301ZM394.5 501H400.5V500H394.5V501ZM400 500.5V506.5H401V500.5H400ZM400.5 501H406.5V500H400.5V501ZM401 500.5V494.5H400V500.5H401ZM494.5 501H500.5V500H494.5V501ZM500 500.5V506.5H501V500.5H500ZM500.5 501H506.5V500H500.5V501ZM501 500.5V494.5H500V500.5H501ZM594.5 501H600.5V500H594.5V501ZM600 500.5V506.5H601V500.5H600ZM600.5 501H606.5V500H600.5V501ZM601 500.5V494.5H600V500.5H601ZM694.5 501H700.5V500H694.5V501ZM700 500.5V506.5H701V500.5H700ZM700.5 501H706.5V500H700.5V501ZM701 500.5V494.5H700V500.5H701ZM794.5 501H800.5V500H794.5V501ZM800 500.5V506.5H801V500.5H800ZM800.5 501H806.5V500H800.5V501ZM801 500.5V494.5H800V500.5H801ZM894.5 501H900.5V500H894.5V501ZM900 500.5V506.5H901V500.5H900ZM900.5 501H906.5V500H900.5V501ZM901 500.5V494.5H900V500.5H901ZM994.5 501H1000.5V500H994.5V501ZM1000 500.5V506.5H1001V500.5H1000ZM1000.5 501H1006.5V500H1000.5V501ZM1001 500.5V494.5H1000V500.5H1001ZM94.5 601H100.5V600H94.5V601ZM100 600.5V606.5H101V600.5H100ZM100.5 601H106.5V600H100.5V601ZM101 600.5V594.5H100V600.5H101ZM194.5 601H200.5V600H194.5V601ZM200 600.5V606.5H201V600.5H200ZM200.5 601H206.5V600H200.5V601ZM201 600.5V594.5H200V600.5H201ZM294.5 601H300.5V600H294.5V601ZM300 600.5V606.5H301V600.5H300ZM300.5 601H306.5V600H300.5V601ZM301 600.5V594.5H300V600.5H301ZM394.5 601H400.5V600H394.5V601ZM400 600.5V606.5H401V600.5H400ZM400.5 601H406.5V600H400.5V601ZM401 600.5V594.5H400V600.5H401ZM494.5 601H500.5V600H494.5V601ZM500 600.5V606.5H501V600.5H500ZM500.5 601H506.5V600H500.5V601ZM501 600.5V594.5H500V600.5H501ZM594.5 601H600.5V600H594.5V601ZM600 600.5V606.5H601V600.5H600ZM600.5 601H606.5V600H600.5V601ZM601 600.5V594.5H600V600.5H601ZM694.5 601H700.5V600H694.5V601ZM700 600.5V606.5H701V600.5H700ZM700.5 601H706.5V600H700.5V601ZM701 600.5V594.5H700V600.5H701ZM794.5 601H800.5V600H794.5V601ZM800 600.5V606.5H801V600.5H800ZM800.5 601H806.5V600H800.5V601ZM801 600.5V594.5H800V600.5H801ZM894.5 601H900.5V600H894.5V601ZM900 600.5V606.5H901V600.5H900ZM900.5 601H906.5V600H900.5V601ZM901 600.5V594.5H900V600.5H901ZM994.5 601H1000.5V600H994.5V601ZM1000 600.5V606.5H1001V600.5H1000ZM1000.5 601H1006.5V600H1000.5V601ZM1001 600.5V594.5H1000V600.5H1001ZM1100.5 1L1106.5 1L1106.5 2.62268e-07L1100.5 5.24537e-07L1100.5 1ZM1106.5 700H1100.5V701H1106.5V700ZM1192.5 1H1200.5V2.62268e-07H1192.5V1ZM1200 0.5V8.50001H1201V0.5H1200ZM1200 694.5V700.5H1201V694.5H1200ZM1200.5 700H1194.5V701H1200.5V700ZM1200 594.5V600.5H1201V594.5H1200ZM1200.5 600H1194.5V601H1200.5V600ZM1200 600.5V606.5H1201V600.5H1200ZM1200 494.5V500.5H1201V494.5H1200ZM1200.5 500H1194.5V501H1200.5V500ZM1200 500.5V506.5H1201V500.5H1200ZM1200 394.5V400.5H1201V394.5H1200ZM1200.5 400H1194.5V401H1200.5V400ZM1200 400.5V406.5H1201V400.5H1200ZM1200 294.5V300.5H1201V294.5H1200ZM1200.5 300H1194.5V301H1200.5V300ZM1200 300.5V306.5H1201V300.5H1200ZM1200 194.5V200.5H1201V194.5H1200ZM1200.5 200H1194.5V201H1200.5V200ZM1200 200.5V206.5H1201V200.5H1200ZM1200 94.5001V100.5H1201V94.5001H1200ZM1200.5 100H1194.5V101H1200.5V100ZM1200 100.5V106.5H1201V100.5H1200ZM1100.5 101H1106.5V100H1100.5V101ZM1100.5 201H1106.5V200H1100.5V201ZM1100.5 301H1106.5V300H1100.5V301ZM1100.5 401H1106.5V400H1100.5V401ZM1100.5 501H1106.5V500H1100.5V501ZM1100.5 601H1106.5V600H1100.5V601ZM106.5 800H100.5V801H106.5V800ZM101 800.5V794.5H100V800.5H101ZM100.5 800H94.5V801H100.5V800ZM206.5 800H200.5V801H206.5V800ZM201 800.5V794.5H200V800.5H201ZM200.5 800H194.5V801H200.5V800ZM306.5 800H300.5V801H306.5V800ZM301 800.5V794.5H300V800.5H301ZM300.5 800H294.5V801H300.5V800ZM406.5 800H400.5V801H406.5V800ZM401 800.5V794.5H400V800.5H401ZM400.5 800H394.5V801H400.5V800ZM506.5 800H500.5V801H506.5V800ZM501 800.5V794.5H500V800.5H501ZM500.5 800H494.5V801H500.5V800ZM606.5 800H600.5V801H606.5V800ZM601 800.5V794.5H600V800.5H601ZM600.5 800H594.5V801H600.5V800ZM706.5 800H700.5V801H706.5V800ZM701 800.5V794.5H700V800.5H701ZM700.5 800H694.5V801H700.5V800ZM806.5 800H800.5V801H806.5V800ZM801 800.5V794.5H800V800.5H801ZM800.5 800H794.5V801H800.5V800ZM906.5 800H900.5V801H906.5V800ZM901 800.5V794.5H900V800.5H901ZM900.5 800H894.5V801H900.5V800ZM1006.5 800H1000.5V801H1006.5V800ZM1001 800.5V794.5H1000V800.5H1001ZM1000.5 800H994.5V801H1000.5V800ZM1100 794.5V800.5H1101V794.5H1100ZM1100.5 800H1094.5V801H1100.5V800ZM8.5 800H0.5V801H8.5V800ZM1 800.5V792.5H2.62269e-07V800.5H1ZM1100 700.5V706.5H1101V700.5H1100ZM1 706.5L1 700.5L0 700.5L2.62269e-07 706.5L1 706.5ZM100 700.5V706.5H101V700.5H100ZM200 700.5V706.5H201V700.5H200ZM300 700.5V706.5H301V700.5H300ZM400 700.5V706.5H401V700.5H400ZM500 700.5V706.5H501V700.5H500ZM600 700.5V706.5H601V700.5H600ZM700 700.5V706.5H701V700.5H700ZM800 700.5V706.5H801V700.5H800ZM900 700.5V706.5H901V700.5H900ZM1000 700.5V706.5H1001V700.5H1000ZM1106.5 800H1100.5V801H1106.5V800ZM1200 792.5V800.5H1201V792.5H1200ZM1200.5 800H1192.5V801H1200.5V800ZM1200 700.5V706.5H1201V700.5H1200Z"
            fill="#393a40" />
    </g>
    <defs>
        <clipPath id="clip0_5180_32616">
            <rect width="1201" height="801" fill="white" />
        </clipPath>
    </defs>
</svg>